<svg width="102" height="49" viewBox="0 0 102 49" fill="none" xmlns="http://www.w3.org/2000/svg">
<g id="mh-icon--logo-desktop.svg" clip-path="url(#clip0_210_996)">
<g id="Group">
<path id="Vector" d="M49.904 38.0239H45.824V32.3669H49.904C51.834 32.3969 53.149 33.4859 53.149 35.1889C53.149 36.8939 51.833 38.0239 49.904 38.0239ZM50.46 28.1899H41V48.1899H45.823V42.4649H50.43C55.517 42.4649 58 38.8519 58 35.1889C58 31.5269 55.546 28.1899 50.46 28.1899ZM96.083 40.3959L86.917 28.1899H82V48.1899H86.917V35.9549L96.083 48.1899H101V28.1899H96.083V40.3959ZM43.254 22.1159V20.1759H45.206C46.1 20.1759 46.567 20.4099 46.567 21.1459C46.567 21.7929 46.113 22.1159 45.207 22.1159H43.254ZM43.254 16.2489H45.055C45.921 16.2489 46.334 16.5719 46.334 17.2489C46.334 18.0289 46.031 18.3369 45.055 18.3369H43.255V16.2499L43.254 16.2489ZM49 21.2789C49 20.2049 48.505 19.3369 47.598 18.8519C47.804 18.6899 48.478 17.9699 48.478 16.9399C48.478 15.3369 47.626 14.1899 44.918 14.1899H41V24.1899H45.468C48.024 24.1899 49 22.9099 49 21.2779V21.2789ZM68.448 18.0719L73.552 24.1899H76V14.1899H73.552V20.2929L68.448 14.1899H66V24.1899H68.448V18.0719ZM89 22.2079L87.012 20.8419C86.6714 21.2546 86.2117 21.552 85.6958 21.6938C85.1798 21.8355 84.6327 21.8146 84.1291 21.6339C83.6254 21.4533 83.1898 21.1216 82.8816 20.6842C82.5734 20.2468 82.4077 19.725 82.407 19.1899C82.4075 18.6555 82.5728 18.1341 82.8804 17.697C83.1879 17.2599 83.6228 16.9282 84.1257 16.7471C84.6286 16.5661 85.175 16.5445 85.6907 16.6853C86.2063 16.8261 86.6659 17.1224 87.007 17.5339L88.996 16.1669C88.5292 15.5517 87.9262 15.053 87.2342 14.71C86.5423 14.367 85.7803 14.189 85.008 14.1899C84.3508 14.1893 83.7 14.3181 83.0926 14.569C82.4852 14.82 81.9332 15.1881 81.4682 15.6525C81.0031 16.1168 80.6341 16.6682 80.3822 17.2751C80.1303 17.8821 80.0004 18.5328 80 19.1899C80 21.9509 82.24 24.1899 85.008 24.1899C86.638 24.1899 88.085 23.4129 89 22.2079ZM97 16.5919C97.6763 16.6107 98.3186 16.8926 98.7903 17.3775C99.262 17.8625 99.5259 18.5124 99.5259 19.1889C99.5259 19.8655 99.262 20.5154 98.7903 21.0003C98.3186 21.4853 97.6763 21.7672 97 21.7859C96.3112 21.7859 95.6507 21.5123 95.1636 21.0253C94.6766 20.5383 94.403 19.8777 94.403 19.1889C94.403 18.5002 94.6766 17.8396 95.1636 17.3526C95.6507 16.8656 96.3112 16.5919 97 16.5919ZM97 24.1899C98.3261 24.1899 99.5979 23.6632 100.536 22.7255C101.473 21.7878 102 20.516 102 19.1899C102 17.8639 101.473 16.5921 100.536 15.6544C99.5979 14.7167 98.3261 14.1899 97 14.1899C95.6739 14.1899 94.4021 14.7167 93.4645 15.6544C92.5268 16.5921 92 17.8639 92 19.1899C92 20.516 92.5268 21.7878 93.4645 22.7255C94.4021 23.6632 95.6739 24.1899 97 24.1899ZM57.538 16.9249L58.891 20.2449C58.441 20.3129 57.982 20.3509 57.524 20.3509C57.066 20.3509 56.614 20.3139 56.166 20.2459L57.538 16.9249ZM55.306 22.3269C56.6922 22.6136 58.1208 22.6292 59.513 22.3729C59.588 22.3589 59.663 22.3409 59.738 22.3259L60.498 24.1899H63L58.825 14.1899H56.21L52 24.1899H54.536L55.306 22.3269ZM68 40.5949C67.07 40.5949 66.148 40.5219 65.238 40.3839L68.029 33.6609L70.779 40.3809C69.863 40.5209 68.931 40.5949 68 40.5949ZM65.358 28.1899L57 48.1899H61.998L63.544 44.4639C66.3286 45.0371 69.1976 45.0683 71.994 44.5559C72.146 44.5279 72.297 44.4919 72.448 44.4609L73.974 48.1899H79L70.614 28.1899H65.358ZM14.5 32.2359C11.22 32.2359 8.554 29.6219 8.554 26.4059C8.554 23.1899 11.22 20.5759 14.5 20.5759C17.78 20.5759 20.446 23.1899 20.446 26.4059C20.446 29.6219 17.78 32.2359 14.5 32.2359ZM14.5 12.1899C6.504 12.1899 0 18.5669 0 26.4059V48.1899H8.554V39.3929L9.227 39.6519C10.91 40.2959 12.682 40.6219 14.5 40.6219C22.496 40.6219 29 34.2449 29 26.4059C29 18.5669 22.496 12.1899 14.5 12.1899Z" fill="#414141"/>
<path id="Vector_2" d="M0 8.18994H8V0.189941H0V8.18994Z" fill="#00C5FF"/>
</g>
</g>
<defs>
<clipPath id="clip0_210_996">
<rect width="102" height="48" fill="white" transform="translate(0 0.189941)"/>
</clipPath>
</defs>
</svg>
